<mxfile host="app.diagrams.net" modified="2022-01-01T14:05:44.733Z" agent="5.0 (Windows NT 10.0; Win64; x64) AppleWebKit/537.36 (KHTML, like Gecko) Chrome/96.0.4664.110 Safari/537.36" etag="03c7D4btgthl8Www_UJH" version="16.0.3" type="github">
  <diagram name="Page-1" id="0783ab3e-0a74-02c8-0abd-f7b4e66b4bec">
    <mxGraphModel dx="782" dy="428" grid="1" gridSize="10" guides="1" tooltips="1" connect="1" arrows="1" fold="1" page="1" pageScale="1" pageWidth="850" pageHeight="1100" background="none" math="0" shadow="0">
      <root>
        <mxCell id="0" />
        <mxCell id="1" parent="0" />
        <mxCell id="1c1d494c118603dd-1" value="Restaurant Finder" style="swimlane;html=1;childLayout=stackLayout;startSize=20;rounded=0;shadow=0;comic=0;labelBackgroundColor=none;strokeWidth=1;fontFamily=Verdana;fontSize=12;align=center;" parent="1" vertex="1">
          <mxGeometry x="40" y="20" width="760" height="740" as="geometry" />
        </mxCell>
        <mxCell id="1c1d494c118603dd-3" value="User" style="swimlane;html=1;startSize=20;" parent="1c1d494c118603dd-1" vertex="1">
          <mxGeometry y="20" width="760" height="720" as="geometry" />
        </mxCell>
        <mxCell id="60571a20871a0731-4" value="" style="ellipse;whiteSpace=wrap;html=1;rounded=0;shadow=0;comic=0;labelBackgroundColor=none;strokeWidth=1;fillColor=#000000;fontFamily=Verdana;fontSize=12;align=center;" parent="1c1d494c118603dd-3" vertex="1">
          <mxGeometry x="370" y="60" width="30" height="30" as="geometry" />
        </mxCell>
        <mxCell id="pZRyJmo8lcFpNpZf3xVv-4" value="" style="edgeStyle=orthogonalEdgeStyle;rounded=0;orthogonalLoop=1;jettySize=auto;html=1;" edge="1" parent="1c1d494c118603dd-3" source="60571a20871a0731-8" target="pZRyJmo8lcFpNpZf3xVv-1">
          <mxGeometry relative="1" as="geometry" />
        </mxCell>
        <mxCell id="60571a20871a0731-8" value="Search Restaurant" style="rounded=1;whiteSpace=wrap;html=1;shadow=0;comic=0;labelBackgroundColor=none;strokeWidth=1;fontFamily=Verdana;fontSize=12;align=center;arcSize=50;" parent="1c1d494c118603dd-3" vertex="1">
          <mxGeometry x="335" y="130" width="100" height="30" as="geometry" />
        </mxCell>
        <mxCell id="1c1d494c118603dd-27" style="edgeStyle=orthogonalEdgeStyle;rounded=0;html=1;labelBackgroundColor=none;startArrow=none;startFill=0;startSize=5;endArrow=classicThin;endFill=1;endSize=5;jettySize=auto;orthogonalLoop=1;strokeWidth=1;fontFamily=Verdana;fontSize=12" parent="1c1d494c118603dd-3" source="60571a20871a0731-4" target="60571a20871a0731-8" edge="1">
          <mxGeometry relative="1" as="geometry" />
        </mxCell>
        <mxCell id="pZRyJmo8lcFpNpZf3xVv-1" value="" style="rhombus;whiteSpace=wrap;html=1;fillColor=#FFFFFF;strokeColor=#000000;" vertex="1" parent="1c1d494c118603dd-3">
          <mxGeometry x="345" y="210" width="80" height="40" as="geometry" />
        </mxCell>
        <mxCell id="pZRyJmo8lcFpNpZf3xVv-2" value="restaurant could &lt;br&gt;not be found" style="edgeStyle=orthogonalEdgeStyle;html=1;align=center;verticalAlign=middle;endArrow=open;endSize=8;strokeColor=#000000;rounded=0;entryX=0.5;entryY=1;entryDx=0;entryDy=0;exitX=1;exitY=0.5;exitDx=0;exitDy=0;spacingTop=0;" edge="1" source="pZRyJmo8lcFpNpZf3xVv-1" parent="1c1d494c118603dd-3" target="pZRyJmo8lcFpNpZf3xVv-6">
          <mxGeometry x="0.36" relative="1" as="geometry">
            <mxPoint x="481" y="200" as="targetPoint" />
            <mxPoint x="431" y="220" as="sourcePoint" />
            <Array as="points">
              <mxPoint x="530" y="230" />
            </Array>
            <mxPoint as="offset" />
          </mxGeometry>
        </mxCell>
        <mxCell id="pZRyJmo8lcFpNpZf3xVv-3" value="restaurant found" style="edgeStyle=orthogonalEdgeStyle;html=1;align=center;verticalAlign=top;endArrow=open;endSize=8;strokeColor=#000000;rounded=0;entryX=0.5;entryY=0;entryDx=0;entryDy=0;" edge="1" source="pZRyJmo8lcFpNpZf3xVv-1" parent="1c1d494c118603dd-3" target="pZRyJmo8lcFpNpZf3xVv-8">
          <mxGeometry x="-1" relative="1" as="geometry">
            <mxPoint x="385" y="300" as="targetPoint" />
          </mxGeometry>
        </mxCell>
        <mxCell id="pZRyJmo8lcFpNpZf3xVv-7" style="edgeStyle=orthogonalEdgeStyle;rounded=0;orthogonalLoop=1;jettySize=auto;html=1;exitX=0.5;exitY=0;exitDx=0;exitDy=0;strokeColor=#000000;entryX=1;entryY=0.5;entryDx=0;entryDy=0;" edge="1" parent="1c1d494c118603dd-3" source="pZRyJmo8lcFpNpZf3xVv-6" target="60571a20871a0731-8">
          <mxGeometry relative="1" as="geometry">
            <mxPoint x="435" y="138" as="targetPoint" />
            <Array as="points">
              <mxPoint x="530" y="145" />
            </Array>
          </mxGeometry>
        </mxCell>
        <mxCell id="pZRyJmo8lcFpNpZf3xVv-6" value="Show Error" style="rounded=1;whiteSpace=wrap;html=1;shadow=0;comic=0;labelBackgroundColor=none;strokeWidth=1;fontFamily=Verdana;fontSize=12;align=center;arcSize=50;" vertex="1" parent="1c1d494c118603dd-3">
          <mxGeometry x="480" y="170" width="100" height="30" as="geometry" />
        </mxCell>
        <mxCell id="pZRyJmo8lcFpNpZf3xVv-10" value="" style="edgeStyle=orthogonalEdgeStyle;rounded=0;orthogonalLoop=1;jettySize=auto;html=1;strokeColor=#000000;" edge="1" parent="1c1d494c118603dd-3" source="pZRyJmo8lcFpNpZf3xVv-8" target="pZRyJmo8lcFpNpZf3xVv-9">
          <mxGeometry relative="1" as="geometry" />
        </mxCell>
        <mxCell id="pZRyJmo8lcFpNpZf3xVv-8" value="Check details" style="rounded=1;whiteSpace=wrap;html=1;shadow=0;comic=0;labelBackgroundColor=none;strokeWidth=1;fontFamily=Verdana;fontSize=12;align=center;arcSize=50;" vertex="1" parent="1c1d494c118603dd-3">
          <mxGeometry x="335" y="300" width="100" height="30" as="geometry" />
        </mxCell>
        <mxCell id="pZRyJmo8lcFpNpZf3xVv-12" value="" style="edgeStyle=orthogonalEdgeStyle;rounded=0;orthogonalLoop=1;jettySize=auto;html=1;strokeColor=#000000;" edge="1" parent="1c1d494c118603dd-3" source="pZRyJmo8lcFpNpZf3xVv-9" target="pZRyJmo8lcFpNpZf3xVv-11">
          <mxGeometry relative="1" as="geometry" />
        </mxCell>
        <mxCell id="pZRyJmo8lcFpNpZf3xVv-9" value="Navigate Menu" style="rounded=1;whiteSpace=wrap;html=1;shadow=0;comic=0;labelBackgroundColor=none;strokeWidth=1;fontFamily=Verdana;fontSize=12;align=center;arcSize=50;" vertex="1" parent="1c1d494c118603dd-3">
          <mxGeometry x="335" y="360" width="100" height="30" as="geometry" />
        </mxCell>
        <mxCell id="pZRyJmo8lcFpNpZf3xVv-14" value="" style="edgeStyle=orthogonalEdgeStyle;rounded=0;orthogonalLoop=1;jettySize=auto;html=1;strokeColor=#000000;" edge="1" parent="1c1d494c118603dd-3" source="pZRyJmo8lcFpNpZf3xVv-11" target="pZRyJmo8lcFpNpZf3xVv-13">
          <mxGeometry relative="1" as="geometry" />
        </mxCell>
        <mxCell id="pZRyJmo8lcFpNpZf3xVv-11" value="Select Item" style="rounded=1;whiteSpace=wrap;html=1;shadow=0;comic=0;labelBackgroundColor=none;strokeWidth=1;fontFamily=Verdana;fontSize=12;align=center;arcSize=50;" vertex="1" parent="1c1d494c118603dd-3">
          <mxGeometry x="335" y="420" width="100" height="30" as="geometry" />
        </mxCell>
        <mxCell id="pZRyJmo8lcFpNpZf3xVv-18" value="" style="edgeStyle=orthogonalEdgeStyle;rounded=0;orthogonalLoop=1;jettySize=auto;html=1;strokeColor=#000000;" edge="1" parent="1c1d494c118603dd-3" source="pZRyJmo8lcFpNpZf3xVv-13" target="pZRyJmo8lcFpNpZf3xVv-15">
          <mxGeometry relative="1" as="geometry" />
        </mxCell>
        <mxCell id="pZRyJmo8lcFpNpZf3xVv-13" value="Calculate Price" style="rounded=1;whiteSpace=wrap;html=1;shadow=0;comic=0;labelBackgroundColor=none;strokeWidth=1;fontFamily=Verdana;fontSize=12;align=center;arcSize=50;" vertex="1" parent="1c1d494c118603dd-3">
          <mxGeometry x="335" y="480" width="100" height="30" as="geometry" />
        </mxCell>
        <mxCell id="pZRyJmo8lcFpNpZf3xVv-15" value="" style="rhombus;whiteSpace=wrap;html=1;fillColor=#FFFFFF;strokeColor=#000000;" vertex="1" parent="1c1d494c118603dd-3">
          <mxGeometry x="345" y="540" width="80" height="40" as="geometry" />
        </mxCell>
        <mxCell id="pZRyJmo8lcFpNpZf3xVv-16" value="add / remove items" style="edgeStyle=orthogonalEdgeStyle;html=1;align=center;verticalAlign=bottom;endArrow=open;endSize=8;strokeColor=#000000;rounded=0;entryX=1;entryY=0.5;entryDx=0;entryDy=0;" edge="1" source="pZRyJmo8lcFpNpZf3xVv-15" parent="1c1d494c118603dd-3" target="pZRyJmo8lcFpNpZf3xVv-11">
          <mxGeometry x="0.0164" relative="1" as="geometry">
            <mxPoint x="525" y="660" as="targetPoint" />
            <Array as="points">
              <mxPoint x="520" y="560" />
              <mxPoint x="520" y="435" />
            </Array>
            <mxPoint as="offset" />
          </mxGeometry>
        </mxCell>
        <mxCell id="pZRyJmo8lcFpNpZf3xVv-17" value="order complete" style="edgeStyle=orthogonalEdgeStyle;html=1;align=center;verticalAlign=top;endArrow=open;endSize=8;strokeColor=#000000;rounded=0;entryX=0.5;entryY=0;entryDx=0;entryDy=0;" edge="1" source="pZRyJmo8lcFpNpZf3xVv-15" parent="1c1d494c118603dd-3" target="pZRyJmo8lcFpNpZf3xVv-19">
          <mxGeometry x="-0.75" relative="1" as="geometry">
            <mxPoint x="385" y="740" as="targetPoint" />
            <mxPoint as="offset" />
          </mxGeometry>
        </mxCell>
        <mxCell id="pZRyJmo8lcFpNpZf3xVv-19" value="" style="ellipse;html=1;shape=endState;fillColor=#000000;strokeColor=#000000;" vertex="1" parent="1c1d494c118603dd-3">
          <mxGeometry x="370" y="640" width="30" height="30" as="geometry" />
        </mxCell>
      </root>
    </mxGraphModel>
  </diagram>
</mxfile>
